<svg xmlns="http://www.w3.org/2000/svg" xmlns:xlink="http://www.w3.org/1999/xlink" id="processonSvg1000" viewBox="99.2734375 128.0 560.7265625 623.0" width="560.7265625" height="623.0"><defs id="ProcessOnDefs1001"><marker id="ProcessOnMarker1011" markerUnits="userSpaceOnUse" orient="auto" markerWidth="16.23606797749979" markerHeight="10.550836550532098" viewBox="-1.0 -1.3763819204711736 16.23606797749979 10.550836550532098" refX="-1.0" refY="3.8990363547948754"><path id="ProcessOnPath1012" d="M12.0 3.8990363547948754L0.0 7.798072709589751V0.0Z" stroke="#323232" stroke-width="2.0" fill="#323232" transform="matrix(1.0,0.0,0.0,1.0,0.0,0.0)"/></marker><marker id="ProcessOnMarker1019" markerUnits="userSpaceOnUse" orient="auto" markerWidth="16.23606797749979" markerHeight="10.550836550532098" viewBox="-1.0 -1.3763819204711736 16.23606797749979 10.550836550532098" refX="-1.0" refY="3.8990363547948754"><path id="ProcessOnPath1020" d="M12.0 3.8990363547948754L0.0 7.798072709589751V0.0Z" stroke="#323232" stroke-width="2.0" fill="#323232" transform="matrix(1.0,0.0,0.0,1.0,0.0,0.0)"/></marker><marker id="ProcessOnMarker1023" markerUnits="userSpaceOnUse" orient="auto" markerWidth="16.23606797749979" markerHeight="10.550836550532098" viewBox="-1.0 -1.3763819204711736 16.23606797749979 10.550836550532098" refX="-1.0" refY="3.8990363547948754"><path id="ProcessOnPath1024" d="M12.0 3.8990363547948754L0.0 7.798072709589751V0.0Z" stroke="#323232" stroke-width="2.0" fill="#323232" transform="matrix(1.0,0.0,0.0,1.0,0.0,0.0)"/></marker><marker id="ProcessOnMarker1050" markerUnits="userSpaceOnUse" orient="auto" markerWidth="16.23606797749979" markerHeight="10.550836550532098" viewBox="-1.0 -1.3763819204711736 16.23606797749979 10.550836550532098" refX="-1.0" refY="3.8990363547948754"><path id="ProcessOnPath1051" d="M12.0 3.8990363547948754L0.0 7.798072709589751V0.0Z" stroke="#323232" stroke-width="2.0" fill="#323232" transform="matrix(1.0,0.0,0.0,1.0,0.0,0.0)"/></marker><marker id="ProcessOnMarker1058" markerUnits="userSpaceOnUse" orient="auto" markerWidth="16.23606797749979" markerHeight="10.550836550532098" viewBox="-1.0 -1.3763819204711736 16.23606797749979 10.550836550532098" refX="-1.0" refY="3.8990363547948754"><path id="ProcessOnPath1059" d="M12.0 3.8990363547948754L0.0 7.798072709589751V0.0Z" stroke="#323232" stroke-width="2.0" fill="#323232" transform="matrix(1.0,0.0,0.0,1.0,0.0,0.0)"/></marker></defs><g id="ProcessOnG1002"><path id="ProcessOnPath1003" d="M99.2734375 128.0H660.0V751.0H99.2734375V128.0Z" fill="none"/><g id="ProcessOnG1004"><g id="ProcessOnG1005" transform="matrix(1.0,0.0,0.0,1.0,119.2734375,358.0)" opacity="1.0"><path id="ProcessOnPath1006" d="M0.0 0.0L149.453125 0.0L149.453125 38.0L0.0 38.0Z" stroke="#323232" stroke-width="2.0" stroke-dasharray="none" opacity="1.0" fill="#ffffff"/><g id="ProcessOnG1007" transform="matrix(1.0,0.0,0.0,1.0,10.0,10.875)"><text id="ProcessOnText1008" fill="#000000" font-weight="normal" font-style="normal" text-decoration="none" font-family="微软雅黑" text-anchor="middle" font-size="13" x="63.7265625" y="13.325">BroadcastReceiver</text></g></g><g id="ProcessOnG1009"><path id="ProcessOnPath1010" d="M194.0 283.75L194.0 320.875L194.0 320.875L194.0 342.7639320225002" stroke="#323232" stroke-width="2.0" stroke-dasharray="none" fill="none" marker-end="url(#ProcessOnMarker1011)"/></g><g id="ProcessOnG1013" transform="matrix(1.0,0.0,0.0,1.0,121.1484375,474.0)" opacity="1.0"><path id="ProcessOnPath1014" d="M0.0 0.0L145.703125 0.0L145.703125 37.0L0.0 37.0Z" stroke="#323232" stroke-width="2.0" stroke-dasharray="none" opacity="1.0" fill="#ffffff"/><g id="ProcessOnG1015" transform="matrix(1.0,0.0,0.0,1.0,10.0,10.375)"><text id="ProcessOnText1016" fill="#000000" font-weight="normal" font-style="normal" text-decoration="none" font-family="微软雅黑" text-anchor="middle" font-size="13" x="61.8515625" y="13.325">UploadManger</text></g></g><g id="ProcessOnG1017"><path id="ProcessOnPath1018" d="M194.0 396.0L194.0 435.0L194.0 435.0L194.0 458.7639320225002" stroke="#323232" stroke-width="2.0" stroke-dasharray="none" fill="none" marker-end="url(#ProcessOnMarker1019)"/></g><g id="ProcessOnG1021"><path id="ProcessOnPath1022" d="M194.0 511.0L194.0 541.0L194.0 541.0L194.0 555.7639320225002" stroke="#323232" stroke-width="2.0" stroke-dasharray="none" fill="none" marker-end="url(#ProcessOnMarker1023)"/></g><g id="ProcessOnG1025" transform="matrix(1.0,0.0,0.0,1.0,275.3984375,511.0)" opacity="1.0"><path id="ProcessOnPath1026" d="M0.0 0.0L364.6015625 0.0L364.6015625 53.65857648849487L0.0 53.65857648849487Z" stroke="#323232" stroke-width="0.0" stroke-dasharray="none" opacity="1.0" fill="none"/><g id="ProcessOnG1027" transform="matrix(1.0,0.0,0.0,1.0,0.0,10.579288244247437)"><text id="ProcessOnText1028" fill="#000000" font-weight="normal" font-style="normal" text-decoration="none" font-family="微软雅黑" text-anchor="start" font-size="13" x="0.0" y="13.325">上传完毕，通知webview更新业务数据，执行js的方法，回传数</text><text id="ProcessOnText1029" fill="#000000" font-weight="normal" font-style="normal" text-decoration="none" font-family="微软雅黑" text-anchor="start" font-size="13" x="0.0" y="29.575">据：javascript:AppObject.docEditCallBack(cnEidtorId,xx）</text></g></g><g id="ProcessOnG1030" transform="matrix(1.0,0.0,0.0,1.0,279.3984375,417.0)" opacity="1.0"><path id="ProcessOnPath1031" d="M0.0 0.0L133.75 0.0L133.75 28.658576488494873L0.0 28.658576488494873Z" stroke="#323232" stroke-width="0.0" stroke-dasharray="none" opacity="1.0" fill="none"/><g id="ProcessOnG1032" transform="matrix(1.0,0.0,0.0,1.0,0.0,-1.9207117557525635)"><text id="ProcessOnText1033" fill="#000000" font-weight="normal" font-style="normal" text-decoration="none" font-family="微软雅黑" text-anchor="start" font-size="13" x="0.0" y="13.325">拦截广播，上传本地的</text><text id="ProcessOnText1034" fill="#000000" font-weight="normal" font-style="normal" text-decoration="none" font-family="微软雅黑" text-anchor="start" font-size="13" x="0.0" y="29.575">附件到服务器</text></g></g><g id="ProcessOnG1035" transform="matrix(1.0,0.0,0.0,1.0,279.3984375,302.0)" opacity="1.0"><path id="ProcessOnPath1036" d="M0.0 0.0L147.6015625 0.0L147.6015625 48.65857648849487L0.0 48.65857648849487Z" stroke="#323232" stroke-width="0.0" stroke-dasharray="none" opacity="1.0" fill="none"/><g id="ProcessOnG1037" transform="matrix(1.0,0.0,0.0,1.0,0.0,8.079288244247437)"><text id="ProcessOnText1038" fill="#000000" font-weight="normal" font-style="normal" text-decoration="none" font-family="微软雅黑" text-anchor="start" font-size="13" x="0.0" y="13.325">发送广播到app，已经编</text><text id="ProcessOnText1039" fill="#000000" font-weight="normal" font-style="normal" text-decoration="none" font-family="微软雅黑" text-anchor="start" font-size="13" x="0.0" y="29.575">辑保存好文档了</text></g></g><g id="ProcessOnG1040" transform="matrix(1.0,0.0,0.0,1.0,123.6015625,571.0)" opacity="1.0"><path id="ProcessOnPath1041" d="M0.0 0.0L140.796875 0.0L140.796875 39.0L0.0 39.0Z" stroke="#323232" stroke-width="2.0" stroke-dasharray="none" opacity="1.0" fill="#ffffff"/><g id="ProcessOnG1042" transform="matrix(1.0,0.0,0.0,1.0,10.0,11.375)"><text id="ProcessOnText1043" fill="#000000" font-weight="normal" font-style="normal" text-decoration="none" font-family="微软雅黑" text-anchor="middle" font-size="13" x="59.3984375" y="13.325">Webview</text></g></g><g id="ProcessOnG1044" transform="matrix(1.0,0.0,0.0,1.0,123.6015625,251.0)" opacity="1.0"><path id="ProcessOnPath1045" d="M0.0 0.0L140.796875 0.0L140.796875 32.75L0.0 32.75Z" stroke="#323232" stroke-width="2.0" stroke-dasharray="none" opacity="1.0" fill="#ffffff"/><g id="ProcessOnG1046" transform="matrix(1.0,0.0,0.0,1.0,10.0,8.25)"><text id="ProcessOnText1047" fill="#000000" font-weight="normal" font-style="normal" text-decoration="none" font-family="微软雅黑" text-anchor="middle" font-size="13" x="59.3984375" y="13.325">wps</text></g></g><g id="ProcessOnG1048"><path id="ProcessOnPath1049" d="M194.0 186.5L194.0 218.75L194.0 218.75L194.0 235.7639320225002" stroke="#323232" stroke-width="2.0" stroke-dasharray="none" fill="none" marker-end="url(#ProcessOnMarker1050)"/></g><g id="ProcessOnG1052" transform="matrix(1.0,0.0,0.0,1.0,144.0,695.0)" opacity="1.0"><path id="ProcessOnPath1053" d="M12.0 0.0L88.0 0.0C104.0 0.0 104.0 36.0 88.0 36.0L12.0 36.0C-4.0 36.0 -4.0 0.0 12.0 0.0Z" stroke="#323232" stroke-width="2.0" stroke-dasharray="none" opacity="1.0" fill="#ffffff"/><g id="ProcessOnG1054" transform="matrix(1.0,0.0,0.0,1.0,10.0,9.875)"><text id="ProcessOnText1055" fill="#000000" font-weight="normal" font-style="normal" text-decoration="none" font-family="微软雅黑" text-anchor="middle" font-size="13" x="39.0" y="13.325">结束</text></g></g><g id="ProcessOnG1056"><path id="ProcessOnPath1057" d="M194.0 610.0L194.0 652.5L194.0 652.5L194.0 679.7639320225002" stroke="#323232" stroke-width="2.0" stroke-dasharray="none" fill="none" marker-end="url(#ProcessOnMarker1058)"/></g><g id="ProcessOnG1060" transform="matrix(1.0,0.0,0.0,1.0,144.0,148.0)" opacity="1.0"><path id="ProcessOnPath1061" d="M12.833333333333334 0.0L87.16666666666667 0.0C104.27777777777777 0.0 104.27777777777777 38.5 87.16666666666667 38.5L12.833333333333334 38.5C-4.277777777777778 38.5 -4.277777777777778 0.0 12.833333333333334 0.0Z" stroke="#323232" stroke-width="2.0" stroke-dasharray="none" opacity="1.0" fill="#ffffff"/><g id="ProcessOnG1062" transform="matrix(1.0,0.0,0.0,1.0,10.0,11.125)"><text id="ProcessOnText1063" fill="#000000" font-weight="normal" font-style="normal" text-decoration="none" font-family="微软雅黑" text-anchor="middle" font-size="13" x="39.0" y="13.325">开始</text></g></g><g id="ProcessOnG1064" transform="matrix(1.0,0.0,0.0,1.0,266.8515625,629.0)" opacity="1.0"><path id="ProcessOnPath1065" d="M0.0 0.0L364.6015625 0.0L364.6015625 53.65857648849487L0.0 53.65857648849487Z" stroke="#323232" stroke-width="0.0" stroke-dasharray="none" opacity="1.0" fill="none"/><g id="ProcessOnG1066" transform="matrix(1.0,0.0,0.0,1.0,0.0,18.704288244247437)"><text id="ProcessOnText1067" fill="#000000" font-weight="normal" font-style="normal" text-decoration="none" font-family="微软雅黑" text-anchor="start" font-size="13" x="0.0" y="13.325">最后更新业务数据</text></g></g></g></g></svg>