<svg xmlns="http://www.w3.org/2000/svg" xmlns:xlink="http://www.w3.org/1999/xlink" id="processonSvg1000" viewBox="35.0 92.42857142857147 382.75 598.4999999999995" width="382.75" height="598.4999999999995"><defs id="ProcessOnDefs1001"><marker id="ProcessOnMarker1011" markerUnits="userSpaceOnUse" orient="auto" markerWidth="16.23606797749979" markerHeight="10.550836550532098" viewBox="-1.0 -1.3763819204711736 16.23606797749979 10.550836550532098" refX="-1.0" refY="3.8990363547948754"><path id="ProcessOnPath1012" d="M12.0 3.8990363547948754L0.0 7.798072709589751V0.0Z" stroke="#323232" stroke-width="2.0" fill="#323232" transform="matrix(1.0,0.0,0.0,1.0,0.0,0.0)"/></marker><marker id="ProcessOnMarker1019" markerUnits="userSpaceOnUse" orient="auto" markerWidth="16.23606797749979" markerHeight="10.550836550532098" viewBox="-1.0 -1.3763819204711736 16.23606797749979 10.550836550532098" refX="-1.0" refY="3.8990363547948754"><path id="ProcessOnPath1020" d="M12.0 3.8990363547948754L0.0 7.798072709589751V0.0Z" stroke="#323232" stroke-width="2.0" fill="#323232" transform="matrix(1.0,0.0,0.0,1.0,0.0,0.0)"/></marker><marker id="ProcessOnMarker1023" markerUnits="userSpaceOnUse" orient="auto" markerWidth="16.23606797749979" markerHeight="10.550836550532098" viewBox="-1.0 -1.3763819204711736 16.23606797749979 10.550836550532098" refX="-1.0" refY="3.8990363547948754"><path id="ProcessOnPath1024" d="M12.0 3.8990363547948754L0.0 7.798072709589751V0.0Z" stroke="#323232" stroke-width="2.0" fill="#323232" transform="matrix(1.0,0.0,0.0,1.0,0.0,0.0)"/></marker><marker id="ProcessOnMarker1053" markerUnits="userSpaceOnUse" orient="auto" markerWidth="16.23606797749979" markerHeight="10.550836550532098" viewBox="-1.0 -1.3763819204711736 16.23606797749979 10.550836550532098" refX="-1.0" refY="3.8990363547948754"><path id="ProcessOnPath1054" d="M12.0 3.8990363547948754L0.0 7.798072709589751V0.0Z" stroke="#323232" stroke-width="2.0" fill="#323232" transform="matrix(1.0,0.0,0.0,1.0,0.0,0.0)"/></marker><marker id="ProcessOnMarker1061" markerUnits="userSpaceOnUse" orient="auto" markerWidth="16.23606797749979" markerHeight="10.550836550532098" viewBox="-1.0 -1.3763819204711736 16.23606797749979 10.550836550532098" refX="-1.0" refY="3.8990363547948754"><path id="ProcessOnPath1062" d="M12.0 3.8990363547948754L0.0 7.798072709589751V0.0Z" stroke="#323232" stroke-width="2.0" fill="#323232" transform="matrix(1.0,0.0,0.0,1.0,0.0,0.0)"/></marker></defs><g id="ProcessOnG1002"><path id="ProcessOnPath1003" d="M35.0 92.42857142857147H417.75V690.928571428571H35.0V92.42857142857144Z" fill="none"/><g id="ProcessOnG1004"><g id="ProcessOnG1005" transform="matrix(1.0,0.0,0.0,1.0,55.0,320.4285714285715)" opacity="1.0"><path id="ProcessOnPath1006" d="M0.0 0.0L147.0 0.0L147.0 40.0L0.0 40.0Z" stroke="#323232" stroke-width="2.0" stroke-dasharray="none" opacity="1.0" fill="#ffffff"/><g id="ProcessOnG1007" transform="matrix(1.0,0.0,0.0,1.0,10.0,11.875)"><text id="ProcessOnText1008" fill="#000000" font-weight="normal" font-style="normal" text-decoration="none" font-family="微软雅黑" text-anchor="middle" font-size="13" x="62.5" y="13.325">WebChromeClient</text></g></g><g id="ProcessOnG1009"><path id="ProcessOnPath1010" d="M128.5 250.1785714285715L128.5 285.3035714285715L128.5 285.3035714285715L128.5 305.19250345107173" stroke="#323232" stroke-width="2.0" stroke-dasharray="none" fill="none" marker-end="url(#ProcessOnMarker1011)"/></g><g id="ProcessOnG1013" transform="matrix(1.0,0.0,0.0,1.0,58.75,410.42857142857144)" opacity="1.0"><path id="ProcessOnPath1014" d="M0.0 0.0L139.5 0.0L139.5 40.0L0.0 40.0Z" stroke="#323232" stroke-width="2.0" stroke-dasharray="none" opacity="1.0" fill="#ffffff"/><g id="ProcessOnG1015" transform="matrix(1.0,0.0,0.0,1.0,10.0,11.875)"><text id="ProcessOnText1016" fill="#000000" font-weight="normal" font-style="normal" text-decoration="none" font-family="微软雅黑" text-anchor="middle" font-size="13" x="58.75" y="13.325">DownloadManager</text></g></g><g id="ProcessOnG1017"><path id="ProcessOnPath1018" d="M128.5 360.4285714285715L128.5 385.4285714285715L128.5 385.4285714285715L128.5 395.1925034510717" stroke="#323232" stroke-width="2.0" stroke-dasharray="none" fill="none" marker-end="url(#ProcessOnMarker1019)"/></g><g id="ProcessOnG1021"><path id="ProcessOnPath1022" d="M128.5 450.4285714285713L128.5 486.4285714285711L128.5 486.4285714285711L128.5 507.1925034510712" stroke="#323232" stroke-width="2.0" stroke-dasharray="none" fill="none" marker-end="url(#ProcessOnMarker1023)"/></g><g id="ProcessOnG1025" transform="matrix(1.0,0.0,0.0,1.0,202.0,460.1785714285712)" opacity="1.0"><path id="ProcessOnPath1026" d="M0.0 0.0L169.875 0.0L169.875 55.5L0.0 55.5Z" stroke="#323232" stroke-width="0.0" stroke-dasharray="none" opacity="1.0" fill="none"/><g id="ProcessOnG1027" transform="matrix(1.0,0.0,0.0,1.0,0.0,11.5)"><text id="ProcessOnText1028" fill="#000000" font-weight="normal" font-style="normal" text-decoration="none" font-family="微软雅黑" text-anchor="start" font-size="13" x="0.0" y="13.325">下载附件存到本地，同时发</text><text id="ProcessOnText1029" fill="#000000" font-weight="normal" font-style="normal" text-decoration="none" font-family="微软雅黑" text-anchor="start" font-size="13" x="0.0" y="29.575">送广播打开wps进行编辑</text></g></g><g id="ProcessOnG1030" transform="matrix(1.0,0.0,0.0,1.0,202.0,373.4285714285715)" opacity="1.0"><path id="ProcessOnPath1031" d="M0.0 0.0L133.75 0.0L133.75 28.658576488494873L0.0 28.658576488494873Z" stroke="#323232" stroke-width="0.0" stroke-dasharray="none" opacity="1.0" fill="none"/><g id="ProcessOnG1032" transform="matrix(1.0,0.0,0.0,1.0,0.0,6.2042882442474365)"><text id="ProcessOnText1033" fill="#000000" font-weight="normal" font-style="normal" text-decoration="none" font-family="微软雅黑" text-anchor="start" font-size="13" x="0.0" y="13.325">捕获手写签批相关信息</text></g></g><g id="ProcessOnG1034" transform="matrix(1.0,0.0,0.0,1.0,202.0,265.5871479170664)" opacity="1.0"><path id="ProcessOnPath1035" d="M0.0 0.0L67.5 0.0L67.5 27.5L0.0 27.5Z" stroke="#323232" stroke-width="0.0" stroke-dasharray="none" opacity="1.0" fill="none"/><g id="ProcessOnG1036" transform="matrix(1.0,0.0,0.0,1.0,0.0,5.625)"><text id="ProcessOnText1037" fill="#000000" font-weight="normal" font-style="normal" text-decoration="none" font-family="微软雅黑" text-anchor="start" font-size="13" x="0.0" y="13.325">applog</text></g></g><g id="ProcessOnG1038" transform="matrix(1.0,0.0,0.0,1.0,61.875,522.428571428571)" opacity="1.0"><path id="ProcessOnPath1039" d="M0.0 0.0L133.25 0.0L133.25 40.0L0.0 40.0Z" stroke="#323232" stroke-width="2.0" stroke-dasharray="none" opacity="1.0" fill="#ffffff"/><g id="ProcessOnG1040" transform="matrix(1.0,0.0,0.0,1.0,10.0,11.875)"><text id="ProcessOnText1041" fill="#000000" font-weight="normal" font-style="normal" text-decoration="none" font-family="微软雅黑" text-anchor="middle" font-size="13" x="55.625" y="13.325">wps</text></g></g><g id="ProcessOnG1042" transform="matrix(1.0,0.0,0.0,1.0,202.0,576.428571428571)" opacity="1.0"><path id="ProcessOnPath1043" d="M0.0 0.0L195.75 0.0L195.75 33.65857648849487L0.0 33.65857648849487Z" stroke="#323232" stroke-width="0.0" stroke-dasharray="none" opacity="1.0" fill="none"/><g id="ProcessOnG1044" transform="matrix(1.0,0.0,0.0,1.0,0.0,0.5792882442474365)"><text id="ProcessOnText1045" fill="#000000" font-weight="normal" font-style="normal" text-decoration="none" font-family="微软雅黑" text-anchor="start" font-size="13" x="0.0" y="13.325">编辑完成保存到手机本地，wps发</text><text id="ProcessOnText1046" fill="#000000" font-weight="normal" font-style="normal" text-decoration="none" font-family="微软雅黑" text-anchor="start" font-size="13" x="0.0" y="29.575">送广播通知app已经编辑保存完毕</text></g></g><g id="ProcessOnG1047" transform="matrix(1.0,0.0,0.0,1.0,55.0,209.4285714285715)" opacity="1.0"><path id="ProcessOnPath1048" d="M0.0 0.0L147.0 0.0L147.0 40.75L0.0 40.75Z" stroke="#323232" stroke-width="2.0" stroke-dasharray="none" opacity="1.0" fill="#ffffff"/><g id="ProcessOnG1049" transform="matrix(1.0,0.0,0.0,1.0,10.0,12.25)"><text id="ProcessOnText1050" fill="#000000" font-weight="normal" font-style="normal" text-decoration="none" font-family="微软雅黑" text-anchor="middle" font-size="13" x="62.5" y="13.325">Webview</text></g></g><g id="ProcessOnG1051"><path id="ProcessOnPath1052" d="M128.5 151.9285714285715L128.5 180.6785714285715L128.5 180.6785714285715L128.5 194.1925034510717" stroke="#323232" stroke-width="2.0" stroke-dasharray="none" fill="none" marker-end="url(#ProcessOnMarker1053)"/></g><g id="ProcessOnG1055" transform="matrix(1.0,0.0,0.0,1.0,81.75,631.428571428571)" opacity="1.0"><path id="ProcessOnPath1056" d="M13.166666666666666 0.0L80.33333333333333 0.0C97.88888888888889 0.0 97.88888888888889 39.5 80.33333333333333 39.5L13.166666666666666 39.5C-4.388888888888888 39.5 -4.388888888888888 0.0 13.166666666666666 0.0Z" stroke="#323232" stroke-width="2.0" stroke-dasharray="none" opacity="1.0" fill="#ffffff"/><g id="ProcessOnG1057" transform="matrix(1.0,0.0,0.0,1.0,10.0,11.625)"><text id="ProcessOnText1058" fill="#000000" font-weight="normal" font-style="normal" text-decoration="none" font-family="微软雅黑" text-anchor="middle" font-size="13" x="35.75" y="13.325">结束</text></g></g><g id="ProcessOnG1059"><path id="ProcessOnPath1060" d="M128.5 562.428571428571L128.5 596.928571428571L128.5 596.928571428571L128.5 616.1925034510712" stroke="#323232" stroke-width="2.0" stroke-dasharray="none" fill="none" marker-end="url(#ProcessOnMarker1061)"/></g><g id="ProcessOnG1063" transform="matrix(1.0,0.0,0.0,1.0,78.5,112.42857142857147)" opacity="1.0"><path id="ProcessOnPath1064" d="M13.166666666666666 0.0L86.83333333333333 0.0C104.38888888888889 0.0 104.38888888888889 39.5 86.83333333333333 39.5L13.166666666666666 39.5C-4.388888888888888 39.5 -4.388888888888888 0.0 13.166666666666666 0.0Z" stroke="#323232" stroke-width="2.0" stroke-dasharray="none" opacity="1.0" fill="#ffffff"/><g id="ProcessOnG1065" transform="matrix(1.0,0.0,0.0,1.0,10.0,11.625)"><text id="ProcessOnText1066" fill="#000000" font-weight="normal" font-style="normal" text-decoration="none" font-family="微软雅黑" text-anchor="middle" font-size="13" x="39.0" y="13.325">开始</text></g></g></g></g></svg>